<?xml version="1.0" encoding="UTF-8" standalone="no"?>
<!-- Created with Inkscape (http://www.inkscape.org/) -->

<svg
   width="159.17787mm"
   height="49.456409mm"
   viewBox="0 0 159.17787 49.456409"
   version="1.1"
   id="svg5"
   xml:space="preserve"
   sodipodi:docname="logo-cariberoyalpetrol.svg"
   inkscape:version="1.2.2 (b0a8486541, 2022-12-01)"
   xmlns:inkscape="http://www.inkscape.org/namespaces/inkscape"
   xmlns:sodipodi="http://sodipodi.sourceforge.net/DTD/sodipodi-0.dtd"
   xmlns="http://www.w3.org/2000/svg"
   xmlns:svg="http://www.w3.org/2000/svg"><sodipodi:namedview
     id="namedview7"
     pagecolor="#505050"
     bordercolor="#ffffff"
     borderopacity="1"
     inkscape:showpageshadow="0"
     inkscape:pageopacity="0"
     inkscape:pagecheckerboard="1"
     inkscape:deskcolor="#505050"
     inkscape:document-units="mm"
     showgrid="false"
     inkscape:zoom="0.5"
     inkscape:cx="360"
     inkscape:cy="19"
     inkscape:window-width="1366"
     inkscape:window-height="732"
     inkscape:window-x="0"
     inkscape:window-y="0"
     inkscape:window-maximized="1"
     inkscape:current-layer="layer1" /><defs
     id="defs2" /><g
     inkscape:label="Capa 1"
     inkscape:groupmode="layer"
     id="layer1"
     transform="translate(-23.558252,-197.51971)"><g
       id="g7951"
       transform="translate(19.490283,-35.108968)"><g
         id="g6035"
         transform="translate(-3.9733202,128.03144)"><path
           style="fill:#042c39;fill-opacity:1;stroke-width:0.239703"
           d="m 41.562907,144.23878 c 1.749758,-1.2603 4.383739,-3.57133 4.966137,-4.35724 0.527243,-0.71147 0.542286,-0.87765 0.479408,-5.29549 l -0.06491,-4.56097 -1.677926,-0.2909 c -3.973397,-0.68888 -7.738472,-0.61997 -10.966447,0.20071 l -0.89889,0.22853 v 4.53679 4.53679 l 0.743943,0.84731 c 0.409169,0.46601 0.894569,0.84729 1.078667,0.84729 0.184099,0 0.334724,0.11338 0.334724,0.25193 0,0.50175 4.14759,3.82304 4.774168,3.82304 0.09084,0 0.644852,-0.3455 1.231131,-0.76779 z"
           id="path4237"
           sodipodi:nodetypes="ssscsscccssssss" /><path
           style="fill:#fcb107;fill-opacity:1;stroke-width:0.264583"
           d="m 41.707383,147.44848 c 1.405239,-0.72953 4.936337,-3.63665 6.868626,-5.65487 1.547421,-1.61624 1.653646,-1.80682 1.653646,-2.96685 0,-1.05184 0.127479,-1.35875 0.841396,-2.02564 1.386147,-1.29486 1.869972,-1.543 3.008572,-1.543 1.302983,0 3.37103,1.25152 3.964516,2.39919 0.51498,0.99586 0.491326,2.33932 -0.05175,2.93942 -0.241641,0.26701 -0.39047,0.51635 -0.330729,0.5541 0.05974,0.0377 0.925832,0.48349 1.924645,0.99056 1.372312,0.69668 1.905643,1.12997 2.182813,1.77334 0.576387,1.33792 0.496755,1.48597 -0.696598,1.29515 -0.977786,-0.15635 -1.084977,-0.11325 -1.331606,0.53543 -0.147521,0.38801 -0.22852,0.82456 -0.179998,0.97012 0.120771,0.36232 2.957652,0.42075 3.408241,0.0702 0.26417,-0.20553 0.362574,-0.98395 0.360386,-2.85084 -0.0029,-2.46595 -0.02484,-2.56265 -0.55181,-2.43039 -0.628129,0.15765 -1.022289,-0.24069 -1.271841,-1.28534 -0.153678,-0.6433 -0.09859,-0.7276 0.475459,-0.7276 1.047654,0 2.003808,-0.47659 2.248267,-1.12063 0.276162,-0.72757 -0.176329,-1.93263 -1.298813,-3.45897 -1.456592,-1.98066 -0.940914,-2.82316 1.708634,-2.79151 1.392987,0.0166 2.320746,-0.32823 1.931133,-0.71784 -0.08815,-0.0881 -1.032708,-0.0283 -2.099027,0.13305 -2.3115,0.3497 -2.958634,0.88535 -2.596232,2.14897 0.125881,0.43893 0.512673,1.13533 0.859534,1.54755 0.816287,0.9701 1.356169,2.28635 1.15394,2.81335 -0.122766,0.31992 -0.478623,0.39713 -1.546357,0.33548 -1.281864,-0.074 -1.405562,-0.14019 -1.633384,-0.87383 -0.13557,-0.43656 -0.479798,-1.30778 -0.764955,-1.93604 -0.505937,-1.11468 -0.542624,-1.13821 -1.517926,-0.97343 -0.72644,0.12273 -1.32801,0.0192 -2.202217,-0.37907 -1.846773,-0.8413 -3.077871,-0.73216 -4.423606,0.39218 -0.85182,0.71167 -1.178351,0.85631 -1.343898,0.59531 -0.302191,-0.47644 -0.284535,-6.23099 0.01969,-6.41901 0.135565,-0.0838 0.422307,0.0987 0.637207,0.40551 0.688737,0.98331 1.4233,1.36146 2.02212,1.04098 0.777386,-0.41605 0.653156,-0.99254 -0.256958,-1.19243 -0.493792,-0.10846 -1.276575,-0.71878 -2.08449,-1.62524 -1.891951,-2.12273 -2.810598,-2.3299 -10.353935,-2.33501 -4.930992,-0.003 -6.282478,0.0799 -7.871354,0.48492 -1.055026,0.26893 -1.918229,0.5945 -1.918229,0.72351 0,0.51928 -2.33784,2.56728 -3.128966,2.74104 -0.984494,0.21624 -1.055547,0.49044 -0.269712,1.04086 0.67323,0.47155 1.105364,0.29582 2.361492,-0.96031 l 0.862418,-0.86241 -0.1772,1.29281 c -0.09746,0.71105 -0.177199,2.42163 -0.177199,3.8013 v 2.50848 l -1.211548,-0.99277 c -1.563954,-1.28154 -2.979601,-1.48987 -4.579088,-0.67388 -0.873009,0.44538 -1.375067,0.53403 -2.266926,0.40029 l -1.145569,-0.17179 -0.55781,1.49088 c -0.306795,0.81999 -0.557809,1.58702 -0.557809,1.70453 0,0.11751 -0.232321,0.4239 -0.516268,0.68087 -0.421775,0.3817 -0.70023,0.42248 -1.521354,0.22277 -0.873892,-0.21253 -0.998589,-0.3372 -0.95531,-0.95512 0.02738,-0.39087 0.473862,-1.39775 0.992187,-2.2375 1.41295,-2.28916 1.133257,-2.33413 -0.380505,-0.0612 -0.726867,1.09141 -1.321877,2.24552 -1.322246,2.56469 -8.47e-4,0.72593 0.888577,1.36856 2.182142,1.57666 0.545703,0.0878 0.992187,0.18617 0.992187,0.21861 0,0.0324 -0.13096,0.43467 -0.291022,0.89382 -0.298813,0.85718 -1.230384,1.33183 -1.85557,0.94544 -0.236194,-0.14598 -0.266834,-0.0627 -0.112516,0.30582 0.116637,0.27853 0.18854,1.48029 0.159784,2.67058 -0.04768,1.97373 -0.0021,2.19101 0.518359,2.46954 0.437898,0.23435 0.761034,0.22653 1.389106,-0.0336 0.628444,-0.26031 0.842986,-0.26546 0.924085,-0.0221 0.186421,0.55925 0.590691,0.33822 0.590691,-0.32296 0,-1.19835 -0.234801,-1.44841 -1.211264,-1.28995 -0.820856,0.13321 -0.905403,0.0874 -0.905403,-0.49028 0,-0.93661 0.710643,-1.79345 1.949081,-2.35005 0.601495,-0.27034 1.383041,-0.72339 1.736769,-1.00678 0.602424,-0.48263 0.614987,-0.54341 0.198437,-0.95996 -1.4672,-1.4672 1.335389,-5.1821 3.892823,-5.16003 1.125191,0.01 1.578029,0.20449 3.015768,1.29715 0.605158,0.45992 0.848789,0.86106 0.848789,1.39756 0,1.37745 0.693957,2.43562 3.069362,4.68032 3.272526,3.09244 6.254896,5.25215 7.326075,5.30523 0.114938,0.006 0.650719,-0.21898 1.190625,-0.49928 z m -2.756773,-1.29909 c -1.854848,-1.2576 -4.395224,-3.37189 -5.918872,-4.92615 l -1.455209,-1.48444 -0.07966,-6.03318 c -0.06458,-4.89073 -0.01027,-6.09078 0.286843,-6.33735 0.645993,-0.53613 7.926416,-1.06699 11.302196,-0.82412 3.975282,0.28601 5.034404,0.45685 5.754687,0.92824 0.586203,0.38364 0.595313,0.47493 0.595313,5.96505 0,4.97963 -0.05195,5.65051 -0.486111,6.27776 -0.267364,0.38626 -0.988684,1.04767 -1.080558,1.30233 -1.295243,1.25893 -2.566606,2.2699 -3.795663,3.28564 -2.070158,1.76865 -3.25056,2.59798 -3.688935,2.5918 -0.187793,-0.003 -0.833107,-0.33817 -1.434028,-0.74558 z m 2.826401,-1.68458 c 1.931371,-1.39111 4.83874,-3.94201 5.481587,-4.80949 0.581967,-0.78532 0.598572,-0.96875 0.529167,-5.84513 l -0.07165,-5.03436 -1.852083,-0.3211 c -4.385808,-0.76038 -8.541671,-0.68432 -12.104688,0.22154 l -0.992188,0.25225 v 5.00768 5.00768 l 0.821159,0.93525 c 1.167783,1.37848 5.027002,5.14769 6.829784,5.43316 0.10027,0 0.711783,-0.38136 1.358914,-0.84748 z m -3.08483,-0.90991 c -1.383655,-1.02975 -5.131277,-4.59687 -5.131277,-4.88413 0,-0.22809 2.215537,-1.16713 3.664358,-1.55312 1.013288,-0.26996 1.128903,-0.37568 0.967451,-0.88463 -0.486859,-1.53473 -0.429641,-1.91728 0.521801,-3.48871 0.528553,-0.87298 1.09819,-2.09324 1.265865,-2.71171 0.347144,-1.28044 0.724275,-1.48184 0.724275,-0.38679 0,0.40573 0.289756,1.26893 0.643901,1.91823 1.481431,2.7161 1.546738,2.93301 1.215718,4.03785 -0.169839,0.56687 -0.258717,1.08075 -0.197511,1.14195 0.06121,0.0612 0.694536,0.27915 1.407401,0.48431 2.548098,0.73335 3.280492,1.06718 3.280492,1.4953 0,0.7582 -5.787893,5.79509 -6.659148,5.79509 -0.224679,0 -0.991176,-0.43363 -1.703326,-0.96364 z m -8.716788,-1e-5 c -0.01278,-0.70803 -0.08342,-0.75611 -1.110986,-0.75611 -1.640023,0 -1.885718,-0.40053 -1.160886,-1.89245 0.329004,-0.67719 0.49221,-1.30233 0.362681,-1.38919 -0.129529,-0.0869 -0.761913,-0.58601 -1.405298,-1.10921 -1.906586,-1.55041 -2.57518,-1.58565 -3.279957,-0.1729 -0.221857,0.44473 -0.403376,0.84823 -0.403376,0.89668 0,0.0485 0.444859,0.27397 0.988577,0.50115 1.216388,0.50824 2.186423,1.38923 2.186423,1.98573 0,0.24605 -0.246767,0.76108 -0.54837,1.14451 l -0.54837,0.69714 h 1.068227 c 0.761886,0 1.142071,0.13797 1.32572,0.48113 0.196264,0.36672 0.528776,0.46787 1.398371,0.42538 1.06921,-0.0522 1.140023,-0.10325 1.127244,-0.81186 z m 23.113534,0.36837 c 0.190154,-0.25466 0.636638,-0.46302 0.992188,-0.46302 0.355552,0 0.646456,-0.13364 0.646456,-0.29698 0,-0.19381 0.157261,-0.17083 0.452684,0.0661 0.312084,0.25035 0.270997,0.10391 -0.132292,-0.47146 -0.321736,-0.45903 -0.584975,-0.99603 -0.584975,-1.19333 0,-0.59886 1.315371,-1.82026 2.137341,-1.98465 0.535708,-0.10714 0.773076,-0.31228 0.773076,-0.66811 0,-1.86472 -1.706243,-2.09339 -3.571875,-0.4787 -0.672545,0.58209 -1.33463,1.05834 -1.471301,1.05834 -0.13667,0 -0.248491,0.17859 -0.248491,0.39687 0,0.21828 0.09339,0.39688 0.207537,0.39688 0.114146,0 0.423164,0.36502 0.686704,0.81116 0.461619,0.78146 0.461712,0.83046 0.0024,1.33791 -0.330764,0.36549 -0.669364,0.47838 -1.10608,0.36877 -0.954501,-0.23957 -1.642722,0.0802 -1.642722,0.76318 0,0.79666 0.03894,0.82002 1.367015,0.82002 0.783834,0 1.255895,-0.14647 1.492258,-0.46302 z m -27.66396,-11.25761 c 0.691224,-0.24318 1.256771,-0.5803 1.256771,-0.74915 0,-0.31513 -0.543378,-0.86975 -2.050521,-2.09294 -0.962741,-0.78136 -1.083795,-1.29301 -0.396875,-1.67743 0.409409,-0.22913 0.376284,-0.29211 -0.28609,-0.54395 -0.90751,-0.34504 -0.802992,-0.91118 0.189829,-1.02824 0.397554,-0.0469 0.79518,-0.27378 0.883613,-0.50423 0.199254,-0.51925 -0.816262,-1.39492 -1.617688,-1.39492 -0.315302,0 -0.829576,-0.17952 -1.142831,-0.39893 -0.525002,-0.36773 -0.583357,-0.35545 -0.745978,0.15692 -0.149333,0.47051 -0.31468,0.52992 -1.076816,0.38695 -1.090714,-0.20462 -1.19781,0.21149 -0.190296,0.73938 l 0.710098,0.37206 -0.643952,0.20122 c -0.354174,0.11067 -0.731426,0.334 -0.838338,0.49629 -0.357808,0.54314 -0.220863,2.82803 0.194386,3.24328 0.218281,0.21828 0.396875,0.68603 0.396875,1.03944 0,0.39477 0.153043,0.64256 0.396875,0.64256 0.279873,0 0.396875,0.28308 0.396875,0.96022 v 0.96021 l 1.653646,-0.18329 c 0.909505,-0.10082 2.219193,-0.38227 2.910417,-0.62545 z m -2.271007,-6.84433 c -0.329454,-0.32946 -0.178137,-0.61736 0.32447,-0.61736 0.275472,0 0.569392,0.17859 0.653154,0.39687 0.155492,0.40521 -0.618374,0.57974 -0.977624,0.22049 z M 59.409032,132.48 c -0.136948,-0.84393 -0.09368,-0.92604 0.487934,-0.92604 0.561766,0 0.619996,-0.0911 0.486156,-0.76027 -0.114083,-0.57042 -0.02164,-0.85162 0.370139,-1.12604 0.476666,-0.33386 0.498176,-0.49826 0.246721,-1.88556 -0.172558,-0.95201 -0.407217,-1.5198 -0.62811,-1.5198 -0.193947,0 -0.352634,-0.17859 -0.352634,-0.39687 0,-0.21829 0.178594,-0.39688 0.396875,-0.39688 0.218281,0 0.396875,-0.18086 0.396875,-0.40192 0,-0.29873 -0.173275,-0.35842 -0.674981,-0.2325 -0.46844,0.11757 -0.772141,0.0365 -0.992505,-0.26483 -0.290163,-0.39682 -0.434459,-0.39952 -1.674564,-0.0312 -0.746374,0.22164 -1.500203,0.57549 -1.675178,0.78632 -0.437372,0.52701 -0.240231,1.30866 0.35917,1.42409 0.414612,0.0798 0.466902,-0.0175 0.321191,-0.59808 -0.125619,-0.5005 -0.05863,-0.73775 0.240736,-0.85263 0.571045,-0.21913 0.757007,0.0383 0.438653,0.60713 -0.171577,0.30659 -0.176419,0.64417 -0.0136,0.94839 0.205473,0.38393 0.114591,0.5249 -0.485455,0.75304 -0.703249,0.26738 -0.713163,0.2942 -0.209084,0.56569 0.291042,0.15675 0.580559,0.32875 0.643374,0.38223 0.187915,0.16 -1.646327,1.94139 -1.998998,1.94139 -0.323073,0 -1.422509,1.22216 -1.422509,1.58129 0,0.10286 0.744141,0.39851 1.653646,0.65702 0.909505,0.25849 1.772708,0.50607 1.918229,0.55016 0.145521,0.0441 0.726647,0.0896 1.291389,0.10106 l 1.026806,0.0209 -0.150276,-0.92604 z m -41.40439,-0.19281 c 0.739228,0.27903 0.798574,0.27111 0.463021,-0.0618 -0.211686,-0.21001 -1.039728,-0.49659 -1.840092,-0.63683 -0.800365,-0.14024 -1.735109,-0.34149 -2.077208,-0.4472 -0.516734,-0.15968 -0.605906,-0.10745 -0.526905,0.30864 0.06047,0.31849 0.35921,0.53135 0.820438,0.58458 0.398938,0.046 0.725341,0.18454 0.725341,0.30775 0,0.12321 0.357188,0.0892 0.79375,-0.0756 0.600316,-0.2266 1.000381,-0.22161 1.641655,0.0204 z m 22.170846,-8.27383 c 2.692135,0 5.51987,0.0934 6.283854,0.20755 l 1.389063,0.20755 v -0.76039 c 0,-0.5643 0.1794,-0.84213 0.69565,-1.07735 0.382606,-0.17433 0.649793,-0.36282 0.593746,-0.41886 -0.05605,-0.056 -2.019601,-0.23978 -4.363458,-0.4083 -4.108532,-0.2954 -12.616752,-0.0187 -13.040977,0.42415 -0.08626,0.09 0.111054,0.34381 0.438476,0.56393 0.336005,0.22589 0.595312,0.67208 0.595312,1.02435 0,0.59532 0.058,0.6152 1.256771,0.43075 0.691224,-0.10636 3.459427,-0.19338 6.151563,-0.19338 z m -8.73125,-3.02709 c 0,-0.31217 -0.51603,-0.64611 -0.705557,-0.45659 -0.189524,0.18953 0.144418,0.70556 0.456589,0.70556 0.136932,0 0.248968,-0.11204 0.248968,-0.24897 z m 8.995833,-0.0591 c 1.527969,0.0182 4.087813,0.0888 5.688542,0.15672 2.166813,0.092 2.606215,0.0624 1.719792,-0.11593 -2.593375,-0.52165 -12.055716,-0.79375 -12.742482,-0.36643 -0.194916,0.12128 -0.597617,0.18913 -0.89489,0.15078 -0.297272,-0.0383 -0.833054,0.0558 -1.190625,0.20911 -0.481399,0.20647 0.03655,0.23391 1.995705,0.10571 1.455208,-0.0952 3.895989,-0.1582 5.423958,-0.13996 z m 9.657292,-0.22109 c 0.08994,-0.14552 0.03743,-0.26458 -0.116676,-0.26458 -0.154109,0 -0.280199,0.11906 -0.280199,0.26458 0,0.14552 0.0525,0.26458 0.116676,0.26458 0.06417,0 0.190262,-0.11906 0.280199,-0.26458 z m -1.146416,-0.75946 c 1.396683,-0.60292 2.012487,-1.25579 2.235303,-2.36988 0.14732,-0.7366 0.04293,-0.96468 -0.809445,-1.76857 -1.119682,-1.056 -2.095047,-1.30737 -1.061167,-0.27349 1.050973,1.05097 0.772139,2.14413 -0.975164,3.82309 -1.24573,1.19701 -1.107421,1.33042 0.610473,0.58885 z m -16.183793,0.0902 c 0,-0.077 -0.47625,-0.74258 -1.058333,-1.47897 -0.582083,-0.73639 -1.058333,-1.4803 -1.058333,-1.65314 0,-0.3578 0.755115,-1.52521 1.175289,-1.81699 0.164,-0.11389 0.07722,-0.19607 -0.20956,-0.19844 -0.269214,-0.002 -0.909357,0.41583 -1.422543,0.92901 -0.819412,0.81941 -0.914247,1.049 -0.7786,1.8849 0.189045,1.16494 0.798695,1.87664 1.875353,2.18926 0.981094,0.28487 1.476727,0.33332 1.476727,0.14437 z m 1.995255,-0.4067 c 0.243507,-0.394 -0.03882,-0.60822 -0.545404,-0.41382 -0.233781,0.0897 -0.350951,0.28301 -0.260382,0.42956 0.214466,0.34701 0.586081,0.33975 0.805786,-0.0157 z m 11.895371,-0.2506 c 0,-0.56714 -0.768792,-0.48522 -0.880301,0.0938 -0.06809,0.35359 0.03966,0.46134 0.393253,0.39325 0.267875,-0.0516 0.487048,-0.27076 0.487048,-0.48705 z m -10.365386,-0.80009 c -0.265393,-0.46909 -0.629605,-1.10523 -0.809361,-1.41365 -0.179755,-0.30842 -0.328583,-1.06678 -0.330729,-1.68524 -0.0045,-1.30563 0.631973,-2.11155 1.861958,-2.35755 1.559057,-0.31181 1.185971,-0.70533 -0.521885,-0.55047 -1.903453,0.1726 -2.578108,0.64436 -2.82824,1.97768 -0.308028,1.64193 0.576424,3.45257 2.263812,4.63446 0.850858,0.59597 0.950455,0.43057 0.364445,-0.60523 z m 4.620985,0.3074 c -0.04501,-0.23635 -0.348512,-0.46777 -0.674449,-0.51428 -0.443228,-0.0632 -0.592609,0.0479 -0.592609,0.44098 0,0.28903 0.148828,0.57743 0.330729,0.64088 0.538957,0.188 1.024202,-0.10614 0.936329,-0.56758 z m 4.499994,-0.40203 c 1.29486,-1.40475 1.741228,-2.77498 1.362345,-4.18204 -0.329589,-1.22401 -0.818804,-1.50185 -2.950012,-1.67546 -1.696527,-0.1382 -1.655847,-0.0364 0.274645,0.68705 1.564175,0.5862 1.7569,2.04997 0.576406,4.37786 -0.434721,0.85725 -0.791909,1.64794 -0.79375,1.75708 -0.0078,0.46155 0.52597,0.12515 1.530366,-0.96449 z m -6.350059,-0.1798 c 0.787223,-1.42097 0.974011,-1.6041 1.449883,-1.42149 0.250822,0.0962 0.456041,0.33421 0.456041,0.52881 0,0.1946 0.293894,0.68788 0.653097,1.09617 0.822484,0.9349 0.863058,0.47612 0.147159,-1.66396 -0.672674,-2.01087 -0.702794,-4.34013 -0.06629,-5.12618 0.258164,-0.31882 0.883243,-0.68713 1.389062,-0.81847 0.688216,-0.1787 0.486847,-0.19913 -0.800116,-0.0812 -1.923613,0.1763 -1.944277,0.17622 -3.96875,-0.0152 -1.380902,-0.13056 -1.404268,-0.12303 -0.457573,0.14755 0.548699,0.15683 1.130197,0.53284 1.29222,0.83558 0.418613,0.78219 0.09086,4.24805 -0.561996,5.94286 -0.584436,1.51719 -0.269401,1.90521 0.467259,0.5755 z m 1.64134,-9.09562 c 0,-0.44452 -0.721262,-0.74091 -0.940345,-0.38642 -0.205951,0.33323 0.389724,1.07967 0.705742,0.88436 0.129032,-0.0797 0.234603,-0.30382 0.234603,-0.49794 z"
           id="path400"
           sodipodi:nodetypes="csssssscsssssssssssscccssssssscssssssscssssscsscssscsssssssssssssssccsssssscssscccsscscsssscccssssscsscccccssssssssssssssssssscsssssscsscscsscssssssssscsssccssssscsssssscssssssccsssssssssssssssccscssssssssssscccscsssscssccsscsscscsssssssscccsccccssssssssssssssscsssscssccsssssscsssssscsssssscsssccssssscssssccsscs" /></g><g
         id="g7628"
         transform="translate(-20.693023,128.81958)"><path
           style="fill:#ffffff;fill-opacity:1;stroke:#ffffff;stroke-width:0.5;stroke-dasharray:none;stroke-opacity:1"
           d="m 109.91941,135.57432 0.074,-3.37344 1.09171,-0.0798 1.09171,-0.0798 1.95189,3.38705 1.95188,3.38705 1.78505,0.0782 c 0.98178,0.043 1.78478,-0.0165 1.78445,-0.13229 -5.3e-4,-0.21479 -2.07925,-3.9948 -3.14508,-5.71934 l -0.5893,-0.95351 0.90398,-0.3777 c 1.60259,-0.6696 3.09559,-2.79304 3.09559,-4.40273 0,-1.68513 -1.19918,-3.6127 -2.749,-4.41874 -0.96555,-0.50218 -9.5189,-0.54963 -10.11356,-0.0561 -0.29712,0.24659 -0.36662,1.76929 -0.36662,8.03298 0,4.2508 0.0794,7.80809 0.17639,7.9051 0.097,0.097 0.80784,0.17639 1.5796,0.17639 h 1.40321 z m -0.0582,-8.00365 v -1.85208 h 2.91042 c 2.55764,0 2.97455,0.0641 3.43958,0.52916 0.29104,0.29105 0.52734,0.73753 0.52512,0.99219 -0.0106,1.20937 -1.03136,1.65365 -3.7994,1.65365 -1.23791,0 -2.32433,0.11906 -2.41426,0.26458 -0.42136,0.68177 -0.66146,0.10552 -0.66146,-1.5875 z m 22.98669,10.59969 c 1.71461,-0.87473 3.37263,-2.54002 4.19383,-4.21225 2.33051,-4.74561 -0.96572,-10.86654 -6.11986,-11.36429 l -1.29664,-0.12522 0.15582,1.16197 c 0.16438,1.22577 0.86261,2.0375 2.52241,2.93244 1.5465,0.83384 2.61437,3.30386 2.1592,4.99425 -0.67631,2.51163 -2.78845,4.08755 -5.17515,3.86132 -5.09884,-0.48332 -6.24858,-6.8015 -1.68927,-9.283 1.32389,-0.72055 1.37517,-0.80708 1.71091,-2.88739 0.14408,-0.89276 0.10603,-0.99885 -0.31549,-0.87965 -0.26363,0.0745 -0.89604,0.21849 -1.40536,0.31987 -2.42766,0.48324 -4.9654,2.79428 -5.6686,5.1622 -1.43092,4.81844 0.7096,8.90544 5.62737,10.74463 1.3412,0.5016 3.88435,0.29775 5.30083,-0.42488 z m 11.40915,-2.47576 v -3.25315 l 2.38065,-4.7505 c 1.30936,-2.61277 2.38093,-4.83978 2.38125,-4.94893 2.7e-4,-0.10914 -0.8169,-0.19843 -1.81606,-0.19843 h -1.81666 l -0.84846,1.91823 c -1.55281,3.51068 -1.73498,3.8889 -1.87636,3.89578 -0.14747,0.007 -0.2273,-0.16542 -1.64893,-3.56505 l -0.88513,-2.11667 -1.9039,-0.0777 c -1.04715,-0.0427 -1.9039,-0.007 -1.9039,0.0786 0,0.086 1.07156,2.28179 2.38125,4.87963 l 2.38125,4.72334 v 3.33405 3.33404 h 1.5875 1.5875 z m 7.39581,2.65784 c 0.1324,-0.32742 0.44368,-1.16086 0.69174,-1.85208 l 0.45101,-1.25677 h 2.86427 2.86427 l 0.28903,1.12448 c 0.67419,2.6229 0.47522,2.43884 2.72916,2.52467 2.36768,0.0902 2.38065,0.0683 1.47395,-2.48325 -1.57147,-4.42231 -4.47174,-13.17688 -4.47174,-13.49814 0,-0.28906 -0.55745,-0.36776 -2.60483,-0.36776 -2.74911,0 -3.11281,0.1472 -3.59539,1.45521 -0.68686,1.86169 -4.6477,14.294 -4.6477,14.58823 0,0.27033 0.46555,0.36072 1.85776,0.36072 1.67884,0 1.88093,-0.0573 2.09847,-0.59531 z m 2.99683,-8.51073 c 0.45937,-1.39459 0.91887,-2.53562 1.0211,-2.53562 0.10223,0 0.26783,0.37314 0.368,0.8292 0.10017,0.45607 0.40467,1.31927 0.67667,1.91823 0.272,0.59896 0.65247,1.73017 0.65567,1.89332 0.003,0.16315 -0.89246,0.0885 -1.62184,0.18528 -0.72938,0.0968 -1.34979,0.0207 -1.55738,0.10038 -0.27642,0.10608 -0.1539,-0.53378 0.45778,-2.39079 z m 21.35736,7.38625 v -1.71979 h -2.65898 c -1.86593,0 -2.89179,0.12039 -3.43958,0.40367 l -0.78061,0.40367 v -6.88596 -6.88596 h -1.27 c -0.6985,0 -1.87905,0.0434 -1.87905,0.0434 0,0 -0.026,2.69646 -0.026,8.47614 v 7.88458 h 5.02708 5.02709 z"
           id="path402"
           sodipodi:nodetypes="ccccccscscsssssssccscsscsssssscsssssscssssccscscscsccssccccccsscccscsssssssssssccssccsscccscscccc" /><path
           style="fill:#fbb800;fill-opacity:1;stroke:#fbb800;stroke-width:0.5;stroke-dasharray:none;stroke-opacity:1"
           d="m 131.20922,132.28705 c 0.8667,-0.81421 0.83784,-2.45792 -0.0645,-3.67279 -0.37227,-0.50121 -0.86331,-1.30082 -1.09119,-1.77691 l -0.41435,-0.86561 -1.0503,1.79165 c -1.34758,2.29876 -1.50871,3.22012 -0.74958,4.28621 0.4856,0.68197 0.75401,0.81274 1.66813,0.81274 0.75438,0 1.27773,-0.17692 1.70177,-0.57529 z"
           id="path6037"
           sodipodi:nodetypes="ssscsssss" /></g><rect
         style="fill:#fbb800;fill-opacity:1;stroke:#fbb800;stroke-width:0.756327;stroke-dasharray:none;stroke-opacity:1;paint-order:stroke markers fill;stop-color:#000000"
         id="rect7690"
         width="0.27431169"
         height="41.188171"
         x="74.164452"
         y="236.43158" /><text
         xml:space="preserve"
         style="font-weight:bold;font-size:5.56088px;line-height:1.25;font-family:Helvetica;-inkscape-font-specification:'Helvetica Bold';fill:#fcb107;fill-opacity:1;stroke-width:0.0556088"
         x="79.989349"
         y="293.19461"
         id="text7746"
         transform="scale(1.068768,0.93565678)"><tspan
           sodipodi:role="line"
           id="tspan7744"
           style="fill:#fcb107;fill-opacity:1;stroke-width:0.0556088"
           x="79.989349"
           y="293.19461">CARIBE ROYAL PETROL</tspan></text></g></g></svg>
